<?xml version="1.0" encoding="UTF-8" standalone="no"?>
<svg width="43px" height="43px" viewBox="0 0 43 43" version="1.1" xmlns="http://www.w3.org/2000/svg" xmlns:xlink="http://www.w3.org/1999/xlink" xmlns:sketch="http://www.bohemiancoding.com/sketch/ns">
    <!-- Generator: Sketch 3.3.3 (12081) - http://www.bohemiancoding.com/sketch -->
    <title>Imported Layers Copy 3</title>
    <desc>Created with Sketch.</desc>
    <defs></defs>
    <g id="Page-1" stroke="none" stroke-width="1" fill="none" fill-rule="evenodd" sketch:type="MSPage">
        <g id="Imported-Layers-Copy-3" sketch:type="MSLayerGroup" transform="translate(2.000000, 2.000000)">
            <path d="M23.1555408,9.80041874 C23.1555408,11.734604 21.4894645,13.3032994 19.4366497,13.3032994 C17.3822031,13.3032994 15.7161268,11.734604 15.7161268,9.80041874 C15.7161268,7.86623348 17.3822031,6.29753808 19.4366497,6.29753808 C21.4894645,6.29753808 23.1555408,7.86623348 23.1555408,9.80041874" id="Fill-1" fill="#777A7F" sketch:type="MSShapeGroup"></path>
            <path d="M0.0719808763,19.3063894 L0.0719808763,1.58899212 C0.0719808763,0.77489426 0.727950804,0.11493755 1.54292421,0.11493755 L37.3303752,0.11493755 C38.1427548,0.11493755 38.8013186,0.775550763 38.8013186,1.58899212 L38.8013186,19.3063894 C38.8013186,29.9055953 30.1315212,38.4978413 19.4366497,38.4978413 C8.74177826,38.4978413 0.0719808763,29.9055953 0.0719808763,19.3063894 Z" id="Stroke-2" stroke="#777A7F" stroke-width="3.087" sketch:type="MSShapeGroup"></path>
        </g>
    </g>
</svg>